# xmcd
#
# Track frame offsets:
#	150
#	14733
#	28115
#	37847
#	51462
#	65567
#	84913
#	96761
#	109097
#	121111
#
# Disc length: 1755 seconds
#
# Revision: 1
# Processed by: cddbd v1.5.1PL0 Copyright (c) Steve Scherf et al.
# Submitted via: audiograbber 1.82.02
#
DISCID=7d06d90a
DTITLE=Reba McEntire - Behind the Scene
DYEAR=1983
DGENRE=Country
TTITLE0=Reba McEntire - Love Isn't Love (Til You Give It Away)
TTITLE1=Reba McEntire - Is It Really Love
TTITLE2=Reba McEntire - Reasons
TTITLE3=Reba McEntire - Nickel Dreams
TTITLE4=Reba McEntire - One Good Reason
TTITLE5=Reba McEntire - You Really Better Love Me After This
TTITLE6=Reba McEntire - There Ain't No Future In This
TTITLE7=Reba McEntire - Why Do We Want (What We Know We Can't Have)
TTITLE8=Reba McEntire - I Sacrificed More Than You'll Ever Lose
TTITLE9=Reba McEntire - Pins And Needles
EXTD=
EXTT0=
EXTT1=
EXTT2=
EXTT3=
EXTT4=
EXTT5=
EXTT6=
EXTT7=
EXTT8=
EXTT9=
PLAYORDER=
